<svg width="154" height="26" viewBox="0 0 154 26" fill="none" xmlns="http://www.w3.org/2000/svg">
<path fill-rule="evenodd" clip-rule="evenodd" d="M0 0H10.125V6.37499H0V0ZM0 9.37499V12V24H10.125V9.37499H0ZM12.125 9.37499V23.9695C17.9935 23.5278 22.625 18.3376 22.625 12C22.625 11.0983 22.5312 10.2199 22.3535 9.37499H12.125ZM21.3077 6.37499C19.5269 2.8216 16.1113 0.330556 12.125 0.0304725V6.37499H21.3077Z" fill="#2989E3"/>
<path d="M33.5796 2.816H39.0996C40.4596 2.816 41.6756 3.032 42.7476 3.464C43.8356 3.88 44.7556 4.464 45.5076 5.216C46.2756 5.968 46.8596 6.872 47.2596 7.928C47.6756 8.984 47.8836 10.144 47.8836 11.408C47.8836 12.672 47.6756 13.832 47.2596 14.888C46.8596 15.944 46.2756 16.848 45.5076 17.6C44.7556 18.352 43.8356 18.944 42.7476 19.376C41.6756 19.792 40.4596 20 39.0996 20H33.5796V2.816ZM39.0516 17.408C40.9876 17.408 42.4836 16.88 43.5396 15.824C44.5956 14.768 45.1236 13.296 45.1236 11.408C45.1236 9.536 44.5956 8.072 43.5396 7.016C42.4836 5.944 40.9876 5.408 39.0516 5.408H36.2916V17.408H39.0516ZM57.5574 18.56H57.4134C57.0614 19.024 56.6054 19.448 56.0454 19.832C55.4854 20.2 54.7734 20.384 53.9094 20.384C53.2854 20.384 52.7014 20.28 52.1574 20.072C51.6134 19.88 51.1414 19.608 50.7414 19.256C50.3414 18.888 50.0214 18.464 49.7814 17.984C49.5574 17.488 49.4454 16.944 49.4454 16.352C49.4454 15.728 49.5654 15.168 49.8054 14.672C50.0614 14.176 50.4054 13.76 50.8374 13.424C51.2854 13.088 51.8134 12.832 52.4214 12.656C53.0294 12.464 53.6854 12.368 54.3894 12.368C55.1734 12.368 55.8294 12.448 56.3574 12.608C56.8854 12.752 57.2854 12.888 57.5574 13.016V12.56C57.5574 12.208 57.4774 11.88 57.3174 11.576C57.1734 11.272 56.9654 11.016 56.6934 10.808C56.4374 10.584 56.1414 10.416 55.8054 10.304C55.4694 10.176 55.1174 10.112 54.7494 10.112C54.1574 10.112 53.6214 10.232 53.1414 10.472C52.6774 10.696 52.2614 11.064 51.8934 11.576L49.7814 10.184C50.3414 9.416 51.0374 8.84 51.8694 8.456C52.7014 8.056 53.6454 7.856 54.7014 7.856C56.4454 7.856 57.7894 8.288 58.7334 9.152C59.6934 10.016 60.1734 11.248 60.1734 12.848V20H57.5574V18.56ZM57.5574 15.104C57.2054 14.896 56.8134 14.728 56.3814 14.6C55.9494 14.472 55.4534 14.408 54.8934 14.408C54.0614 14.408 53.3974 14.6 52.9014 14.984C52.4054 15.368 52.1574 15.832 52.1574 16.376C52.1574 16.664 52.2214 16.92 52.3494 17.144C52.4774 17.352 52.6374 17.536 52.8294 17.696C53.0374 17.856 53.2694 17.976 53.5254 18.056C53.7974 18.136 54.0694 18.176 54.3414 18.176C54.7734 18.176 55.1814 18.096 55.5654 17.936C55.9654 17.76 56.3094 17.536 56.5974 17.264C56.8854 16.976 57.1174 16.648 57.2934 16.28C57.4694 15.912 57.5574 15.52 57.5574 15.104ZM66.0936 19.328L61.1976 8.24H64.1736L67.4136 16.04H67.5336L70.6776 8.24H73.6296L66.2616 25.184H63.4296L66.0936 19.328ZM74.844 20V2.816H77.508V20H74.844ZM83.8358 19.328L78.9398 8.24H81.9158L85.1558 16.04H85.2758L88.4198 8.24H91.3718L84.0038 25.184H81.1718L83.8358 19.328ZM92.5862 2.816H95.2502V8.12L95.1062 9.752H95.2502C95.5702 9.24 96.0582 8.8 96.7142 8.432C97.3702 8.048 98.1542 7.856 99.0662 7.856C99.8182 7.856 100.53 8.016 101.202 8.336C101.89 8.64 102.49 9.072 103.002 9.632C103.514 10.192 103.922 10.856 104.226 11.624C104.53 12.376 104.682 13.208 104.682 14.12C104.682 15.032 104.53 15.872 104.226 16.64C103.922 17.392 103.514 18.048 103.002 18.608C102.49 19.168 101.89 19.608 101.202 19.928C100.53 20.232 99.8182 20.384 99.0662 20.384C98.1542 20.384 97.3702 20.2 96.7142 19.832C96.0582 19.448 95.5702 19 95.2502 18.488H95.1062V20H92.5862V2.816ZM98.5622 17.912C99.0102 17.912 99.4422 17.824 99.8582 17.648C100.29 17.472 100.658 17.224 100.962 16.904C101.282 16.568 101.538 16.168 101.73 15.704C101.922 15.24 102.018 14.712 102.018 14.12C102.018 13.528 101.922 13 101.73 12.536C101.538 12.072 101.282 11.68 100.962 11.36C100.658 11.024 100.29 10.768 99.8582 10.592C99.4422 10.416 99.0102 10.328 98.5622 10.328C98.0982 10.328 97.6582 10.416 97.2422 10.592C96.8262 10.768 96.4582 11.016 96.1382 11.336C95.8342 11.656 95.5862 12.056 95.3942 12.536C95.2022 13 95.1062 13.528 95.1062 14.12C95.1062 14.712 95.2022 15.248 95.3942 15.728C95.5862 16.192 95.8342 16.584 96.1382 16.904C96.4582 17.224 96.8262 17.472 97.2422 17.648C97.6582 17.824 98.0982 17.912 98.5622 17.912ZM106.461 8.24H108.981V10.016H109.125C109.269 9.712 109.461 9.432 109.701 9.176C109.957 8.904 110.237 8.68 110.541 8.504C110.861 8.312 111.189 8.168 111.525 8.072C111.877 7.96 112.213 7.904 112.533 7.904C112.917 7.904 113.245 7.936 113.517 8C113.789 8.064 114.037 8.152 114.261 8.264L113.493 10.736C113.317 10.656 113.117 10.6 112.893 10.568C112.685 10.52 112.429 10.496 112.125 10.496C111.693 10.496 111.293 10.584 110.925 10.76C110.573 10.936 110.261 11.176 109.989 11.48C109.717 11.784 109.501 12.144 109.341 12.56C109.197 12.976 109.125 13.416 109.125 13.88V20H106.461V8.24ZM125.865 17.192C125.369 18.104 124.665 18.864 123.753 19.472C122.841 20.08 121.721 20.384 120.393 20.384C119.513 20.384 118.697 20.232 117.945 19.928C117.209 19.608 116.569 19.168 116.025 18.608C115.481 18.048 115.057 17.392 114.753 16.64C114.449 15.872 114.297 15.032 114.297 14.12C114.297 13.272 114.441 12.472 114.729 11.72C115.017 10.952 115.417 10.288 115.929 9.728C116.457 9.152 117.089 8.696 117.825 8.36C118.561 8.024 119.377 7.856 120.273 7.856C121.185 7.856 121.993 8.008 122.697 8.312C123.417 8.616 124.025 9.04 124.521 9.584C125.017 10.128 125.393 10.784 125.649 11.552C125.921 12.32 126.057 13.16 126.057 14.072C126.057 14.152 126.057 14.224 126.057 14.288C126.041 14.368 126.033 14.44 126.033 14.504C126.017 14.568 126.009 14.632 126.009 14.696H116.961C117.009 15.256 117.145 15.744 117.369 16.16C117.593 16.576 117.865 16.92 118.185 17.192C118.521 17.464 118.889 17.664 119.289 17.792C119.689 17.92 120.081 17.984 120.465 17.984C121.233 17.984 121.865 17.8 122.361 17.432C122.857 17.064 123.265 16.608 123.585 16.064L125.865 17.192ZM123.393 12.656C123.361 12.416 123.281 12.152 123.153 11.864C123.041 11.56 122.857 11.288 122.601 11.048C122.361 10.792 122.041 10.576 121.641 10.4C121.257 10.224 120.785 10.136 120.225 10.136C119.457 10.136 118.793 10.368 118.233 10.832C117.689 11.28 117.321 11.888 117.129 12.656H123.393ZM135.628 18.56H135.484C135.132 19.024 134.676 19.448 134.116 19.832C133.556 20.2 132.844 20.384 131.98 20.384C131.356 20.384 130.772 20.28 130.228 20.072C129.684 19.88 129.212 19.608 128.812 19.256C128.412 18.888 128.092 18.464 127.852 17.984C127.628 17.488 127.516 16.944 127.516 16.352C127.516 15.728 127.636 15.168 127.876 14.672C128.132 14.176 128.476 13.76 128.908 13.424C129.356 13.088 129.884 12.832 130.492 12.656C131.1 12.464 131.756 12.368 132.46 12.368C133.244 12.368 133.9 12.448 134.428 12.608C134.956 12.752 135.356 12.888 135.628 13.016V12.56C135.628 12.208 135.548 11.88 135.388 11.576C135.244 11.272 135.036 11.016 134.764 10.808C134.508 10.584 134.212 10.416 133.876 10.304C133.54 10.176 133.188 10.112 132.82 10.112C132.228 10.112 131.692 10.232 131.212 10.472C130.748 10.696 130.332 11.064 129.964 11.576L127.852 10.184C128.412 9.416 129.108 8.84 129.94 8.456C130.772 8.056 131.716 7.856 132.772 7.856C134.516 7.856 135.86 8.288 136.804 9.152C137.764 10.016 138.244 11.248 138.244 12.848V20H135.628V18.56ZM135.628 15.104C135.276 14.896 134.884 14.728 134.452 14.6C134.02 14.472 133.524 14.408 132.964 14.408C132.132 14.408 131.468 14.6 130.972 14.984C130.476 15.368 130.228 15.832 130.228 16.376C130.228 16.664 130.292 16.92 130.42 17.144C130.548 17.352 130.708 17.536 130.9 17.696C131.108 17.856 131.34 17.976 131.596 18.056C131.868 18.136 132.14 18.176 132.412 18.176C132.844 18.176 133.252 18.096 133.636 17.936C134.036 17.76 134.38 17.536 134.668 17.264C134.956 16.976 135.188 16.648 135.364 16.28C135.54 15.912 135.628 15.52 135.628 15.104ZM149.537 18.488H149.393C149.073 19 148.585 19.448 147.929 19.832C147.273 20.2 146.489 20.384 145.577 20.384C144.825 20.384 144.105 20.232 143.417 19.928C142.745 19.608 142.153 19.168 141.641 18.608C141.129 18.048 140.721 17.392 140.417 16.64C140.113 15.872 139.961 15.032 139.961 14.12C139.961 13.208 140.113 12.376 140.417 11.624C140.721 10.856 141.129 10.192 141.641 9.632C142.153 9.072 142.745 8.64 143.417 8.336C144.105 8.016 144.825 7.856 145.577 7.856C146.489 7.856 147.273 8.048 147.929 8.432C148.585 8.8 149.073 9.24 149.393 9.752H149.537L149.393 8.12V2.816H152.057V20H149.537V18.488ZM146.081 17.912C146.529 17.912 146.961 17.824 147.377 17.648C147.809 17.472 148.177 17.224 148.481 16.904C148.801 16.584 149.057 16.192 149.249 15.728C149.441 15.248 149.537 14.712 149.537 14.12C149.537 13.528 149.441 13 149.249 12.536C149.057 12.056 148.801 11.656 148.481 11.336C148.177 11.016 147.809 10.768 147.377 10.592C146.961 10.416 146.529 10.328 146.081 10.328C145.617 10.328 145.177 10.416 144.761 10.592C144.345 10.768 143.977 11.024 143.657 11.36C143.353 11.68 143.105 12.072 142.913 12.536C142.721 13 142.625 13.528 142.625 14.12C142.625 14.712 142.721 15.24 142.913 15.704C143.105 16.168 143.353 16.568 143.657 16.904C143.977 17.224 144.345 17.472 144.761 17.648C145.177 17.824 145.617 17.912 146.081 17.912Z" fill="#1A1C1E"/>
</svg>
