<svg width="264" height="199" viewBox="0 0 264 199" fill="none" xmlns="http://www.w3.org/2000/svg">
<path d="M17.0874 115.606L138.468 185.687C140.29 186.736 142.358 187.282 144.46 187.271C146.562 187.259 148.623 186.69 150.434 185.621L246.939 128.451C247.397 128.18 247.777 127.793 248.041 127.33C248.304 126.867 248.443 126.344 248.443 125.811C248.443 125.278 248.304 124.754 248.041 124.292C247.777 123.829 247.397 123.442 246.939 123.171C225.482 110.807 135.089 58.707 120.384 50.3701C119.776 50.0191 119.086 49.8342 118.384 49.8342C117.682 49.8342 116.992 50.0191 116.384 50.3701L17.061 108.682C16.4553 109.035 15.9532 109.542 15.6051 110.151C15.2571 110.76 15.0752 111.45 15.0779 112.151C15.0806 112.853 15.2677 113.541 15.6204 114.148C15.9731 114.754 16.479 115.257 17.0874 115.606Z" fill="#DAF2E9"/>
<path d="M137.326 155.349L112.649 169.871C112.649 169.871 116.186 172.604 130.324 181L136.178 184.38L158.618 166.327" fill="url(#paint0_linear_413_269)"/>
<path d="M200.165 118.761L165.422 139.633C165.422 139.633 175.837 145.574 189.974 153.996L206.474 140.28L219.846 128.134" fill="url(#paint1_linear_413_269)"/>
<path d="M54.3246 101.13L23.496 118.339C23.496 118.339 76.956 149.924 91.0734 158.326L122.852 138.524" fill="url(#paint2_linear_413_269)"/>
<path d="M89.364 7.08856L99.693 12.6002L71.4846 39.1685L46.6092 46.9839L38.3328 35.7493" fill="#FFE8BC"/>
<path d="M50.4174 41.327L40.8276 35.8681L89.364 7.08855L88.2222 6.42847L38.3328 35.7493V110.629L49.2162 116.821L53.3676 112.49" fill="#68E1FD"/>
<path opacity="0.42" d="M50.4174 41.327L40.8276 35.8681L89.364 7.08855L88.2222 6.42847L38.3328 35.7493V110.629L49.2162 116.821L53.3676 112.49" fill="#1371A5"/>
<path d="M99.693 12.6002L49.2162 42.0333V116.821L100.492 86.1729L99.693 12.6002Z" fill="#68E1FD"/>
<path d="M51.1237 37.1223L54.2059 39.0761V55.0237L56.1595 52.5154L57.5323 54.0666V37.1817L54.6547 35.109L51.1237 37.1223Z" fill="#E85858"/>
<path d="M56.2848 117.434C56.0406 117.434 53.8626 116.563 55.6974 115.157C56.9146 114.211 58.1886 113.34 59.5122 112.55" fill="#E27825"/>
<path d="M56.2848 105.876C56.2848 105.876 58.1196 112.669 56.2848 116.292L81.2262 130.96L105.897 145.237V134.676" fill="#FFE8BC"/>
<path d="M55.4399 104.82C55.4971 105.291 55.5565 105.762 55.6181 106.233L105.877 134.682V145.244L55.6709 115.936C55.6709 116.352 55.6709 116.768 55.6709 117.19L107.844 147.389V132.999L55.4399 104.82Z" fill="#E27825"/>
<path d="M55.7305 105.005L107.567 134.709L180.299 92.0015L129.578 62.8853C128.811 62.445 127.94 62.2161 127.056 62.2218C126.171 62.2276 125.304 62.468 124.542 62.9183L55.7239 103.711C55.612 103.779 55.5196 103.874 55.4557 103.987C55.3917 104.101 55.3585 104.23 55.3591 104.36C55.3598 104.491 55.3944 104.619 55.4595 104.732C55.5246 104.845 55.618 104.939 55.7305 105.005Z" fill="#FDBA45"/>
<path d="M107.831 147.382C107.831 147.382 180.517 104.569 180.299 104.365C180.081 104.16 180.299 91.9751 180.299 91.9751L107.58 134.682L107.831 147.382Z" fill="#E27825"/>
<path d="M55.7238 103.711C55.5108 103.865 55.3329 104.062 55.2021 104.29C55.0712 104.517 54.9903 104.77 54.9648 105.031C54.879 105.916 55.8228 106.352 56.1528 106.53" fill="#FDBA45"/>
<path d="M203.986 166.492C203.977 166.435 203.947 166.383 203.903 166.345C203.859 166.308 203.803 166.287 203.745 166.287C203.687 166.287 203.632 166.308 203.587 166.345C203.543 166.383 203.514 166.435 203.504 166.492" fill="#7A9F36"/>
<path d="M190.76 114.147L204.237 121.243L204.64 124.57L190.377 116.524" fill="#E27623"/>
<path d="M190.212 108.741L184.661 128.761L185.678 129.349C185.941 129.211 186.195 129.054 186.437 128.88C186.734 128.649 193.637 107.837 193.637 107.837" fill="#E27623"/>
<path d="M203.016 104.807L206.804 116.629L206.481 140.28L205.63 140.841L204.455 140.108L203.584 116.616L200.165 104.807" fill="#E27623"/>
<path d="M188.14 103.388C188.14 103.388 187.717 106.028 188.621 107.461C189.526 108.893 191.921 105.296 191.921 105.296" fill="#FFB469"/>
<path d="M200.699 89.0971L200.165 98.6749L202.673 99.9753L203.141 89.711" fill="#CA6B00"/>
<path d="M216.46 96.1468L218.15 109.091L219.853 128.134L218.757 128.788L217.668 128.101L215.239 109.388L213.609 96.1468" fill="#E27623"/>
<path d="M214.757 97.764C215.464 97.9818 216.982 96.8663 217.437 96.1468C219.925 92.2325 219.206 86.9056 214.731 84.4435C212.751 83.3478 210.698 82.252 208.725 81.1431C206.969 80.1398 205.115 79.2883 203.445 78.1991C203.224 78.0452 202.987 77.9147 202.739 77.8097C202.276 77.6857 201.786 77.7023 201.332 77.8574C200.879 78.0126 200.481 78.2993 200.191 78.681" fill="#FFB469"/>
<path d="M214.942 97.5924C216.143 97.5528 216.83 95.962 217.18 95.0247C218.15 92.457 218.341 87.5724 215.417 86.107C215.362 86.0823 215.314 86.0439 215.279 85.9953C215.243 85.9467 215.22 85.8897 215.213 85.8297L209.596 82.5887L205.253 80.0804C204.494 79.6448 203.775 79.1431 203.016 78.7009C202.257 78.2586 201.511 77.7503 200.673 78.252C199.835 78.7537 199.63 79.8428 199.485 80.8131C199.107 83.0511 199.224 85.3449 199.828 87.5327C200.352 88.9236 201.382 90.0648 202.712 90.7275L206.745 93.0642L214.223 97.3812C214.344 97.4578 214.475 97.5177 214.612 97.5594C214.72 97.5868 214.831 97.5979 214.942 97.5924Z" fill="#FCBD4C"/>
<path d="M215.761 107.962L215.992 108.094C216.625 108.406 217.193 108.833 217.668 109.355C218.803 110.781 217.708 112.405 216.579 113.401C213.536 116.108 208.923 118.319 204.798 117.322C201.227 116.361 197.822 114.863 194.7 112.88C192.119 111.329 188.892 109.454 188.219 106.279C188.101 105.569 188.15 104.841 188.363 104.153C188.577 103.466 188.947 102.837 189.446 102.319C195.921 94.8134 205.036 101.856 211.438 105.533L215.761 107.962Z" fill="#FFB469"/>
<path d="M218.005 108.253C218.196 109.155 218.24 110.082 218.137 110.999C217.711 111.999 217.079 112.899 216.282 113.639C215.53 114.246 215.978 110.009 215.978 110.009" fill="#FFB469"/>
<path d="M215.761 106.16L215.992 106.292C216.625 106.603 217.193 107.031 217.668 107.553C218.803 108.979 217.708 110.603 216.579 111.599C213.536 114.306 208.923 116.517 204.798 115.52C201.227 114.559 197.822 113.061 194.7 111.078C192.119 109.527 188.892 107.652 188.219 104.477C188.101 103.767 188.15 103.039 188.363 102.351C188.577 101.664 188.947 101.035 189.446 100.517C195.921 93.0114 205.036 100.054 211.438 103.731L215.761 106.16Z" fill="#FCBD4C"/>
<path d="M51.0972 97.2095C50.853 97.2095 48.675 96.3382 50.5098 94.9322C51.7269 93.986 53.0009 93.1153 54.3246 92.3249" fill="#9A433A"/>
<path d="M51.0972 85.6383C51.0972 85.6383 52.932 92.4305 51.0972 96.0544L76.0386 110.721L100.709 124.999V114.438" fill="#FFE8BC"/>
<path d="M50.2722 84.5953C50.3294 85.0662 50.3888 85.5371 50.4504 86.0079L100.709 114.457V125.019L50.49 95.7045C50.49 96.1204 50.49 96.5362 50.49 96.9587L102.663 127.157V112.774L50.2722 84.5953Z" fill="#9A433A"/>
<path d="M50.5494 84.7802L102.386 114.484L175.118 71.7766L124.397 42.6603C123.629 42.2201 122.759 41.9911 121.874 41.9969C120.99 42.0027 120.123 42.243 119.361 42.6934L50.5428 83.4798C50.4295 83.5466 50.3356 83.642 50.2707 83.7564C50.2057 83.8708 50.1718 84.0003 50.1725 84.1319C50.1732 84.2635 50.2083 84.3926 50.2745 84.5063C50.3406 84.6201 50.4354 84.7145 50.5494 84.7802Z" fill="#F26250"/>
<path d="M102.65 127.157C102.65 127.157 175.336 84.3181 175.118 84.1399C174.9 83.9617 175.118 71.7502 175.118 71.7502L102.386 114.457L102.65 127.157Z" fill="#9A433A"/>
<path d="M50.5428 83.4798C50.3298 83.6333 50.1519 83.8304 50.021 84.0581C49.8902 84.2857 49.8093 84.5386 49.7838 84.8C49.698 85.6845 50.6418 86.1201 50.9718 86.2983" fill="#F26250"/>
<path d="M93.8058 115.672L93.2778 125.25L95.8452 123.131L97.8054 128.022L98.5974 118.187L93.8058 115.672Z" fill="#2AE400"/>
<path d="M141.365 159.026C140.921 159.025 140.478 158.974 140.045 158.874C138.491 158.528 137.074 157.73 135.97 156.582C134.867 155.434 134.126 153.986 133.841 152.419C133.729 151.376 133.756 148.399 133.795 146.082C133.801 145.735 133.895 145.396 134.068 145.095C134.241 144.795 134.488 144.544 134.785 144.366C135.082 144.187 135.42 144.088 135.767 144.076C136.113 144.065 136.457 144.141 136.765 144.3L147.088 150.089L146.923 150.749C146.923 150.749 146.784 151.343 146.441 153.389C146.223 154.709 145.603 157.02 143.801 158.227C143.087 158.731 142.239 159.009 141.365 159.026ZM135.861 145.891C135.819 145.89 135.778 145.902 135.742 145.924C135.708 145.942 135.68 145.97 135.66 146.004C135.64 146.038 135.63 146.076 135.63 146.115C135.571 149.31 135.584 151.481 135.663 152.221C135.906 153.409 136.488 154.502 137.338 155.368C138.188 156.233 139.271 156.834 140.455 157.099C140.854 157.216 141.273 157.247 141.685 157.19C142.096 157.133 142.491 156.989 142.844 156.769C144.111 155.911 144.566 153.944 144.698 153.132C144.863 152.122 144.989 151.448 145.068 151.019L135.96 145.917C135.929 145.901 135.896 145.892 135.861 145.891Z" fill="#E27623"/>
<path d="M156.083 167.059C155.639 167.058 155.196 167.007 154.763 166.908C153.209 166.561 151.792 165.763 150.688 164.615C149.585 163.467 148.844 162.019 148.559 160.452C148.467 159.6 148.454 157.647 148.507 154.511C148.512 154.108 148.617 153.712 148.813 153.36C149.009 153.007 149.289 152.709 149.629 152.491C149.883 152.333 150.175 152.244 150.475 152.232C150.774 152.221 151.072 152.287 151.338 152.425L161.819 158.155L161.654 158.815C161.654 158.815 161.515 159.409 161.172 161.455C160.954 162.775 160.334 165.086 158.532 166.294C157.811 166.788 156.958 167.055 156.083 167.059ZM150.566 154.029C150.496 154.09 150.44 154.166 150.402 154.25C150.363 154.334 150.342 154.425 150.341 154.518C150.275 158.313 150.341 159.739 150.381 160.261C150.624 161.449 151.206 162.542 152.056 163.408C152.906 164.273 153.989 164.874 155.173 165.139C155.572 165.255 155.991 165.286 156.403 165.229C156.814 165.173 157.209 165.029 157.562 164.808C158.829 163.95 159.284 161.983 159.416 161.171C159.581 160.168 159.707 159.501 159.786 159.066L150.566 154.029Z" fill="#E27623"/>
<path d="M161.271 159.383L160.38 157.812L173.58 150.141C174.663 149.524 175.944 149.353 177.151 149.666C177.623 149.836 178.053 150.107 178.41 150.461C178.767 150.814 179.042 151.241 179.216 151.712L177.547 152.419C177.469 152.185 177.342 151.971 177.173 151.792C177.004 151.613 176.798 151.473 176.57 151.382C175.86 151.239 175.122 151.356 174.491 151.712L161.271 159.383Z" fill="#E27623"/>
<path d="M136.118 145.792L135.208 144.221L148.408 136.55C149.491 135.933 150.772 135.762 151.978 136.075C152.451 136.245 152.881 136.516 153.238 136.87C153.594 137.223 153.87 137.65 154.044 138.121L152.374 138.828C152.297 138.595 152.171 138.382 152.003 138.203C151.836 138.024 151.631 137.883 151.404 137.791C150.69 137.644 149.946 137.761 149.312 138.121L136.118 145.792Z" fill="#E27623"/>
<path d="M146.537 149.785L145.669 151.38L150.516 154.017L151.383 152.423L146.537 149.785Z" fill="#E27623"/>
<path d="M138.257 110.325L140.738 109.117C140.738 109.117 140.936 106.939 140.078 106.477C139.22 106.015 138.257 110.325 138.257 110.325Z" fill="#196132"/>
<path d="M144.296 104.121C144.296 104.121 144.639 109.474 145.009 110.022C145.378 110.57 150.137 113.065 150.526 113.982C150.916 114.9 145.246 113.903 143.345 113.434C141.445 112.966 139.729 112.028 139.663 111.329C139.597 110.629 140.323 107.032 139.663 107.111C139.003 107.19 138.257 110.299 138.257 110.299L136.62 109.348L140.263 96.8069" fill="#196132"/>
<path d="M149.536 104.992L152.018 103.784C152.018 103.784 152.216 101.606 151.358 101.144C150.5 100.682 149.536 104.992 149.536 104.992Z" fill="#196132"/>
<path d="M155.575 98.7937C155.575 98.7937 155.918 104.147 156.288 104.695C156.658 105.243 161.416 107.738 161.806 108.655C162.195 109.573 156.526 108.576 154.625 108.107C152.724 107.639 151.008 106.702 150.942 106.002C150.876 105.302 151.602 101.705 150.942 101.784C150.282 101.863 149.536 104.972 149.536 104.972L147.893 103.995L151.536 91.4536" fill="#196132"/>
<path d="M137.122 58.6343C136.25 59.4726 134.211 71.1297 135.571 76.7272C136.93 82.3247 150.526 84.6482 150.526 84.6482L147.332 98.9125C147.332 98.9125 152.539 102.873 157.516 101.236C159.311 100.655 163.403 80.1728 161.819 77.3213C160.235 74.4697 142.019 64.5949 142.019 64.5949" fill="#FFF0D7"/>
<path d="M126.39 62.8853C125.519 63.7236 123.011 70.2782 126.39 78.3246C128.621 83.6052 140.752 87.3809 140.752 87.3809L136.62 103.177C136.62 103.177 142.052 107.678 146.804 105.5C151.556 103.322 152.889 83.9155 151.305 81.0771C149.721 78.2388 133.94 68.1791 133.94 68.1791" fill="#FFF0D7"/>
<path d="M130.68 47.2083C130.68 47.2083 121.684 50.9444 124.199 63.7104C125.968 72.6875 134.864 73.6776 134.864 73.6776C134.864 73.6776 140.692 70.0075 140.039 68.7798L132.119 64.6543L141.088 60.1195L147.563 66.9118L152.183 63.3077C152.183 63.3077 145.504 52.8256 142.6 48.4955C139.696 44.1654 130.68 47.2083 130.68 47.2083Z" fill="#FF9A22"/>
<path d="M142.342 68.8788L140.758 67.6049C140.758 67.6049 144.289 64.3771 149.107 64.7995C150.378 62.8431 152.285 61.3857 154.506 60.674L156.486 62.1064" fill="#FFE8BC"/>
<path d="M140.758 67.6049L139.504 76.7734L142.336 78.3246L144.566 69.9482" fill="#FFE8BC"/>
<path d="M142.342 68.8788L141.022 77.5589L142.342 78.3246C142.342 78.3246 155.813 70.9185 155.681 70.7864C155.549 70.6544 156.493 62.113 156.493 62.113" fill="#68E1FD"/>
<path d="M155.516 61.4067L142.336 68.8788L143.576 69.5785L156.493 62.1064L155.516 61.4067Z" fill="#68E1FD"/>
<path opacity="0.42" d="M155.516 61.4067L142.336 68.8788L143.576 69.5785L156.493 62.1064L155.516 61.4067Z" fill="#1371A5"/>
<path d="M144.032 70.0868C144.064 69.9653 144.063 69.8377 144.03 69.7166C143.997 69.5955 143.933 69.485 143.844 69.3963C143.756 69.3075 143.645 69.2435 143.524 69.2107C143.403 69.1778 143.275 69.1772 143.154 69.2089C142.128 69.5876 141.04 69.7712 139.946 69.7501C139.829 69.7462 139.713 69.7735 139.61 69.8294C138.582 70.8621 137.442 71.7765 136.211 72.5555L136.58 72.7271C137.069 73.6854 137.63 74.6055 138.257 75.4797C138.399 75.6819 138.588 75.8473 138.807 75.9621C139.027 76.0769 139.27 76.1378 139.517 76.1397C139.68 76.2629 139.852 76.3732 140.032 76.4698C140.29 76.6131 140.585 76.6759 140.879 76.65C141.174 76.6241 141.453 76.5108 141.682 76.3246C141.853 76.4322 142.059 76.4701 142.256 76.4302C142.385 76.4964 142.53 76.5242 142.674 76.5101C142.818 76.4961 142.955 76.4408 143.068 76.351C143.392 76.1604 143.629 75.8513 143.729 75.489C143.829 75.1267 143.783 74.7398 143.603 74.4103C143.832 74.147 143.963 73.812 143.973 73.4627C143.983 73.1134 143.87 72.7717 143.656 72.4961C143.358 72.0691 142.99 71.6963 142.567 71.3938C142.908 71.3341 143.227 71.1801 143.486 70.9492C143.744 70.7183 143.934 70.4196 144.032 70.0868Z" fill="#FDBA45"/>
<path d="M156.988 67.0438C157.067 66.925 157.139 66.7996 157.212 66.6807C157.267 66.5976 157.302 66.5032 157.315 66.4045C157.329 66.3057 157.319 66.2053 157.288 66.1107C157.257 66.0161 157.205 65.9297 157.136 65.8581C157.067 65.7865 156.982 65.7315 156.889 65.6972L156.79 65.6048C156.859 65.4445 156.868 65.2643 156.815 65.0979C156.761 64.9315 156.649 64.7902 156.499 64.7005C156.397 64.6488 156.284 64.6219 156.169 64.6219C156.055 64.6219 155.941 64.6488 155.839 64.7005C155.777 64.7159 155.716 64.7403 155.661 64.7731C155.155 65.0936 154.768 65.5712 154.559 66.1329C154.517 66.2847 154.527 66.446 154.587 66.5917C154.646 66.7374 154.753 66.8592 154.889 66.9382C154.967 66.979 155.052 67.0058 155.14 67.0174C154.888 67.3457 154.683 67.7079 154.532 68.0933C154.348 68.595 154.862 69.0372 155.318 68.991L155.212 69.1362C154.816 69.6511 155.47 70.3442 156.017 70.1858C156.212 70.1209 156.391 70.0165 156.543 69.879C156.695 69.7416 156.817 69.5741 156.902 69.3871C157.133 68.9646 157.357 68.5422 157.562 68.1131C157.614 68.0066 157.64 67.8891 157.638 67.7705C157.636 67.6518 157.606 67.5353 157.55 67.4307C157.494 67.3261 157.413 67.2365 157.315 67.1692C157.218 67.1019 157.105 67.0589 156.988 67.0438Z" fill="#FDBA45"/>
<path d="M141.405 56.8587C141.405 56.8587 141.623 64.9513 141.141 65.8358C140.659 66.7203 132.112 70.3508 132.112 70.3508L126.832 63.6839L141.405 56.8587Z" fill="#FF9A22"/>
<path d="M137.056 43.0102C137.056 43.0102 138.56 46.3106 137.98 47.4723C137.399 48.6341 134.231 47.842 134.231 47.842" fill="#1B6333"/>
<path d="M137.326 41.3336C137.326 41.3336 137.419 48.0004 134.686 48.7199C131.954 49.4394 130.502 46.0796 130.502 46.0796C130.502 46.0796 129.947 41.5778 130.832 40.6339C131.716 39.69 135.881 39.4325 137.326 41.3336Z" fill="#FDBA45"/>
<path d="M138.382 40.5943C138.382 40.5943 136.541 43.2346 135.452 43.8947C134.363 44.5548 133.129 44.1786 132.746 45.0829C132.363 45.9872 133.729 51.347 132.475 52.3438C131.221 53.3405 128.779 50.4493 127.703 51.8685C126.628 53.2877 127.208 55.9016 125.519 56.4891C123.829 57.0766 121.836 54.4494 123.446 52.3636C125.057 50.2777 125.215 49.2546 124.291 48.5681C122.912 47.545 124.337 43.7759 125.948 43.063C127.558 42.3501 127.994 38.6933 130.891 37.7824C133.789 36.8715 137.755 38.5283 138.382 40.5943Z" fill="#1B6333"/>
<path d="M140.758 54.291C140.758 58.0226 140.686 61.7631 140.54 65.5124C140.54 65.9348 141.2 65.9348 141.2 65.5124C141.354 61.7807 141.427 58.0402 141.418 54.291C141.418 54.2034 141.383 54.1195 141.322 54.0576C141.26 53.9957 141.176 53.9609 141.088 53.9609C141.001 53.9609 140.917 53.9957 140.855 54.0576C140.793 54.1195 140.758 54.2034 140.758 54.291Z" fill="#F26250"/>
<path d="M139.92 68.5224C137.795 67.5541 135.925 66.1037 134.459 64.2865C132.992 62.4692 131.97 60.3351 131.472 58.0535C131.38 57.6376 130.746 57.8158 130.812 58.2317C131.332 60.5986 132.395 62.8122 133.918 64.6978C135.44 66.5833 137.379 68.0892 139.583 69.0966C139.993 69.2682 140.329 68.7006 139.92 68.5224Z" fill="#F26250"/>
<defs>
<linearGradient id="paint0_linear_413_269" x1="129.169" y1="173.904" x2="155.004" y2="150.587" gradientUnits="userSpaceOnUse">
<stop stop-color="#DAF2E9"/>
<stop offset="1" stop-color="#C4E0D1"/>
</linearGradient>
<linearGradient id="paint1_linear_413_269" x1="181.48" y1="148.953" x2="192.405" y2="134.208" gradientUnits="userSpaceOnUse">
<stop stop-color="#DAF2E9"/>
<stop offset="1" stop-color="#C4E0D1"/>
</linearGradient>
<linearGradient id="paint2_linear_413_269" x1="61.6704" y1="143.963" x2="72.9318" y2="128.763" gradientUnits="userSpaceOnUse">
<stop stop-color="#DAF2E9"/>
<stop offset="1" stop-color="#C4E0D1"/>
</linearGradient>
</defs>
</svg>
