<svg width="156" height="158" viewBox="0 0 156 158" fill="none" xmlns="http://www.w3.org/2000/svg">
<g clip-path="url(#clip0_422_252)">
<mask id="mask0_422_252" style="mask-type:luminance" maskUnits="userSpaceOnUse" x="0" y="0" width="156" height="159">
<path d="M146.609 91.644C143.204 102.786 136.395 110.564 126.181 114.977C115.968 119.39 103.037 130.026 87.3907 146.884C71.744 163.741 61.6751 161.426 57.1839 139.938C52.6928 118.45 40.8853 102.243 21.7616 91.3184C2.63788 80.3935 -3.88157 64.7296 2.20325 44.3267C8.28807 23.9238 21.3632 11.5881 41.4286 7.31938C61.494 3.05069 79.6398 0.62695 95.866 0.0481452C112.092 -0.530659 126.689 4.13595 139.655 14.048C152.621 23.96 157.873 36.5852 155.41 51.9235C152.947 67.2618 150.014 80.502 146.609 91.644Z" fill="white"/>
</mask>
<g mask="url(#mask0_422_252)">
<path d="M146.609 91.644C143.204 102.786 136.395 110.564 126.181 114.977C115.968 119.39 103.037 130.026 87.3907 146.884C71.744 163.741 61.6751 161.426 57.1839 139.938C52.6928 118.45 40.8853 102.243 21.7616 91.3184C2.63788 80.3935 -3.88157 64.7296 2.20325 44.3267C8.28807 23.9238 21.3632 11.5881 41.4286 7.31938C61.494 3.05069 79.6398 0.62695 95.866 0.0481452C112.092 -0.530659 126.689 4.13595 139.655 14.048C152.621 23.96 157.873 36.5852 155.41 51.9235C152.947 67.2618 150.014 80.502 146.609 91.644Z" fill="url(#paint0_linear_422_252)"/>
</g>
<rect x="140.234" width="4.97872" height="56.2513" fill="#D5B4F0"/>
<rect x="129.447" y="15.3037" width="4.96335" height="26.5532" transform="rotate(-90 129.447 15.3037)" fill="#D5B4F0"/>
</g>
<path d="M50.864 147.82L50.857 147.866C50.8487 147.822 50.8407 147.776 50.8331 147.731C50.8192 147.659 50.8071 147.587 50.7958 147.514C50.3446 144.668 50.5929 141.754 51.519 139.025C51.697 138.493 51.8997 137.97 52.1272 137.457C52.9972 135.47 54.2305 133.664 55.7634 132.132C56.2612 131.621 56.829 131.185 57.4499 130.835C57.5411 130.787 57.6327 130.741 57.7264 130.698C58.3006 130.419 58.9471 130.325 59.5767 130.43C59.8055 130.473 60.0272 130.547 60.2355 130.651C60.3086 130.687 60.3789 130.726 60.4479 130.768C60.8688 131.044 61.2281 131.405 61.5035 131.827C61.7788 132.25 61.9642 132.724 62.0481 133.222C62.1677 133.964 62.1403 134.722 61.9676 135.453C61.9528 135.523 61.9368 135.593 61.9198 135.662C61.7973 136.149 61.6434 136.628 61.4591 137.096C59.6142 141.853 55.6495 146.075 50.864 147.82Z" fill="#F2F2F2"/>
<path d="M60.2233 130.667C58.7837 132.74 57.4238 134.866 56.1436 137.044C54.865 139.221 53.67 141.444 52.5586 143.714C51.9369 144.984 51.3423 146.266 50.7749 147.562C50.7121 147.705 50.924 147.83 50.9877 147.685C52.0009 145.372 53.1005 143.1 54.2864 140.869C55.4716 138.639 56.7401 136.458 58.0917 134.323C58.848 133.129 59.6294 131.951 60.436 130.79C60.5262 130.66 60.3131 130.537 60.2233 130.667Z" fill="white"/>
<path d="M61.7636 135.466C60.6818 136.875 59.0895 137.8 57.3319 138.04C56.8415 138.107 56.3451 138.117 55.8524 138.069C55.6948 138.054 55.6937 138.301 55.85 138.315C57.6832 138.47 59.5033 137.893 60.9151 136.711C61.3111 136.38 61.6672 136.003 61.9763 135.589C62.071 135.462 61.8576 135.34 61.7636 135.466Z" fill="white"/>
<path d="M52.5243 143.109C52.2728 142.75 52.0638 142.363 51.9016 141.955C51.531 141.026 51.3995 140.019 51.5191 139.025C51.6971 138.493 51.8998 137.97 52.1273 137.457C52.1411 137.477 52.1494 137.501 52.1514 137.525C52.1534 137.549 52.149 137.574 52.1387 137.596C51.9785 137.981 51.8633 138.383 51.7955 138.795C51.552 140.262 51.89 141.766 52.7375 142.987C52.7482 143 52.7553 143.016 52.7582 143.033C52.761 143.05 52.7595 143.067 52.7538 143.084C52.7443 143.105 52.7294 143.123 52.7105 143.137C52.6917 143.151 52.6696 143.16 52.6464 143.162C52.6232 143.165 52.5997 143.161 52.5783 143.152C52.5568 143.143 52.5382 143.128 52.5243 143.109Z" fill="white"/>
<path d="M57.4867 130.679C57.1906 131.862 57.2788 133.108 57.7384 134.237C57.7546 134.265 57.7813 134.286 57.8127 134.294C57.844 134.303 57.8775 134.298 57.9058 134.283C57.9335 134.266 57.9537 134.239 57.9622 134.208C57.9707 134.177 57.9669 134.143 57.9515 134.115C57.5212 133.044 57.4413 131.863 57.7235 130.744C57.7308 130.713 57.7258 130.68 57.7096 130.653C57.6933 130.625 57.667 130.605 57.6363 130.597C57.6056 130.588 57.5728 130.592 57.5449 130.608C57.517 130.623 57.4961 130.649 57.4867 130.679Z" fill="white"/>
<path d="M50.8339 141.879L50.8488 141.922C50.8209 141.887 50.7927 141.85 50.7652 141.814C50.7194 141.757 50.6752 141.698 50.6313 141.639C48.9126 139.328 47.782 136.632 47.3376 133.785C47.2484 133.231 47.1856 132.673 47.1492 132.113C46.9988 129.948 47.2539 127.775 47.9013 125.704C48.1054 125.021 48.4059 124.369 48.7936 123.771C48.8519 123.685 48.9118 123.602 48.9752 123.521C49.3543 123.007 49.8832 122.622 50.4892 122.422C50.7118 122.353 50.9426 122.316 51.1753 122.311C51.2565 122.309 51.337 122.311 51.4174 122.315C51.9183 122.364 52.4037 122.517 52.8433 122.762C53.2828 123.008 53.667 123.342 53.9718 123.744C54.4215 124.345 54.7488 125.029 54.9348 125.757C54.954 125.826 54.9722 125.895 54.9892 125.964C55.1067 126.453 55.1924 126.949 55.2458 127.449C55.8171 132.521 54.2625 138.104 50.8339 141.879Z" fill="#F2F2F2"/>
<path d="M51.1716 122.331C50.8577 124.837 50.6387 127.352 50.5147 129.878C50.3913 132.4 50.3634 134.926 50.4311 137.453C50.4691 138.867 50.5371 140.28 50.6352 141.691C50.646 141.847 50.8915 141.859 50.8805 141.701C50.7059 139.181 50.6266 136.657 50.6426 134.129C50.659 131.603 50.7709 129.08 50.9785 126.561C51.0947 125.151 51.2408 123.744 51.4169 122.34C51.4366 122.183 51.1912 122.174 51.1716 122.331Z" fill="white"/>
<path d="M54.7599 125.863C54.455 127.615 53.4736 129.175 52.0285 130.206C51.6253 130.494 51.1902 130.734 50.732 130.921C50.5855 130.981 50.6986 131.199 50.8438 131.14C52.5389 130.423 53.8835 129.065 54.5858 127.361C54.7827 126.883 54.9235 126.384 55.0053 125.873C55.0306 125.717 54.7851 125.708 54.7599 125.863Z" fill="white"/>
<path d="M50.1205 136.933C49.7314 136.733 49.3668 136.487 49.0343 136.202C48.2756 135.551 47.6921 134.72 47.3376 133.785C47.2484 133.231 47.1856 132.673 47.1493 132.113C47.1708 132.124 47.189 132.141 47.2021 132.162C47.2152 132.183 47.2226 132.206 47.2237 132.231C47.2603 132.646 47.3447 133.056 47.4753 133.452C47.9397 134.864 48.9364 136.039 50.2527 136.726C50.2684 136.733 50.2821 136.744 50.2924 136.757C50.3028 136.771 50.3095 136.787 50.3118 136.804C50.3134 136.827 50.3087 136.851 50.2985 136.872C50.2882 136.893 50.2726 136.911 50.2532 136.924C50.2339 136.937 50.2115 136.945 50.1882 136.946C50.1649 136.948 50.1416 136.944 50.1205 136.933Z" fill="white"/>
<path d="M48.7539 123.616C49.0397 124.801 49.6955 125.863 50.6256 126.649C50.6531 126.666 50.6863 126.672 50.718 126.665C50.7498 126.658 50.7775 126.639 50.7951 126.611C50.8119 126.584 50.8174 126.551 50.8104 126.519C50.8035 126.487 50.7846 126.46 50.7578 126.442C49.8803 125.694 49.2626 124.685 48.9936 123.563C48.9857 123.532 48.9661 123.505 48.939 123.488C48.9119 123.472 48.8794 123.466 48.8482 123.473C48.8171 123.48 48.7899 123.499 48.7723 123.525C48.7547 123.552 48.7481 123.584 48.7539 123.616Z" fill="white"/>
<path d="M50.9401 147.851L50.9761 147.879C50.9336 147.865 50.8902 147.849 50.8477 147.834C50.7781 147.81 50.7094 147.784 50.6406 147.758C47.9509 146.739 45.5497 145.078 43.6451 142.919C43.272 142.5 42.9196 142.064 42.5879 141.611C41.298 139.869 40.3449 137.9 39.7779 135.806C39.5824 135.119 39.4857 134.408 39.4907 133.695C39.4939 133.591 39.4996 133.489 39.5095 133.386C39.5524 132.748 39.7917 132.139 40.1944 131.643C40.3452 131.465 40.5198 131.309 40.7132 131.179C40.7803 131.133 40.849 131.092 40.9194 131.052C41.3678 130.823 41.8585 130.689 42.3609 130.659C42.8633 130.629 43.3665 130.703 43.839 130.877C44.5412 131.141 45.1846 131.541 45.7325 132.054C45.7857 132.101 45.8381 132.15 45.8897 132.199C46.2512 132.547 46.5899 132.919 46.9035 133.311C50.1104 137.276 51.801 142.82 50.9401 147.851Z" fill="#F2F2F2"/>
<path d="M40.7203 131.198C41.8026 133.479 42.9699 135.717 44.2224 137.911C45.474 140.104 46.8074 142.246 48.2226 144.339C49.0144 145.51 49.8309 146.664 50.672 147.8C50.765 147.926 50.9782 147.803 50.8839 147.676C49.3827 145.647 47.9596 143.563 46.6145 141.424C45.2711 139.287 44.0098 137.101 42.8307 134.866C42.1711 133.616 41.5383 132.351 40.9323 131.073C40.8645 130.931 40.6527 131.055 40.7203 131.198Z" fill="white"/>
<path d="M45.6422 132.237C46.3264 133.878 46.338 135.722 45.6744 137.371C45.4892 137.831 45.2516 138.268 44.9661 138.673C44.875 138.803 45.0877 138.926 45.178 138.797C46.2212 137.278 46.6245 135.409 46.3004 133.594C46.2095 133.084 46.0597 132.588 45.8542 132.113C45.7917 131.968 45.5802 132.093 45.6422 132.237Z" fill="white"/>
<path d="M47.6817 144.069C47.2459 144.11 46.8068 144.1 46.3733 144.039C45.3846 143.901 44.4464 143.515 43.6451 142.919C43.272 142.499 42.9196 142.064 42.5879 141.611C42.6122 141.609 42.6366 141.614 42.6587 141.624C42.6808 141.634 42.6998 141.65 42.7139 141.67C42.9679 142.001 43.2593 142.3 43.5821 142.563C44.7325 143.503 46.2036 143.955 47.6817 143.823C47.6986 143.82 47.7159 143.822 47.7319 143.828C47.7479 143.834 47.7622 143.844 47.7733 143.857C47.7872 143.876 47.7958 143.898 47.7984 143.921C47.8011 143.944 47.7976 143.968 47.7883 143.989C47.7791 144.011 47.7643 144.029 47.7456 144.043C47.7269 144.058 47.7049 144.066 47.6817 144.069Z" fill="white"/>
<path d="M39.3739 133.585C40.2515 134.43 41.375 134.971 42.5809 135.131C42.6472 135.14 42.703 135.068 42.7037 135.008C42.7029 134.975 42.6897 134.945 42.6669 134.922C42.644 134.899 42.6132 134.886 42.5809 134.885C41.4396 134.728 40.3774 134.212 39.5475 133.411C39.4337 133.301 39.2599 133.475 39.3739 133.585Z" fill="white"/>
<path d="M67.6958 115.401C67.9356 115.236 68.1363 115.021 68.284 114.77C68.4317 114.519 68.5227 114.239 68.5506 113.949C68.5786 113.659 68.5427 113.366 68.4456 113.092C68.3485 112.817 68.1925 112.567 67.9886 112.36L68.7598 95.1064L64.8335 95.5481L65.0616 112.424C64.7363 112.791 64.5564 113.264 64.556 113.754C64.5556 114.245 64.7348 114.718 65.0595 115.085C65.3842 115.452 65.8319 115.687 66.3178 115.745C66.8037 115.803 67.294 115.681 67.6958 115.401Z" fill="#FFB8B8"/>
<path d="M74.8585 144.607L77.0932 145.001L79.3019 136.55L76.3739 135.968L74.8585 144.607Z" fill="#FFB8B8"/>
<path d="M81.0381 147.84L74.0149 146.602L74.492 143.883L78.8016 144.642C79.158 144.705 79.4985 144.837 79.8037 145.032C80.109 145.227 80.373 145.48 80.5806 145.777C80.7883 146.074 80.9356 146.409 81.0141 146.763C81.0926 147.117 81.1007 147.483 81.0381 147.84Z" fill="#2F2E41"/>
<path d="M68.725 145.728L70.9939 145.728L72.0733 136.957L68.7246 136.957L68.725 145.728Z" fill="#FFB8B8"/>
<path d="M75.3696 147.839L68.2388 147.84L68.2386 145.079L72.6144 145.078C73.3451 145.078 74.0459 145.369 74.5626 145.887C75.0793 146.405 75.3696 147.107 75.3696 147.839Z" fill="#2F2E41"/>
<path d="M78.3767 143.326C78.3413 143.326 78.3059 143.324 78.2708 143.32L75.6002 143.1C75.4786 143.085 75.3612 143.046 75.2551 142.985C75.149 142.924 75.0564 142.842 74.983 142.744C74.9096 142.645 74.8568 142.533 74.8279 142.414C74.7991 142.295 74.7947 142.171 74.8151 142.05L77.2811 128.198L75.6148 119.392C75.6012 119.321 75.5622 119.256 75.5051 119.211C75.448 119.166 75.3766 119.144 75.304 119.147C75.2315 119.151 75.1626 119.181 75.1103 119.231C75.0579 119.282 75.0255 119.349 75.019 119.422L72.9359 142.909C72.9131 143.145 72.7997 143.363 72.6199 143.516C72.44 143.67 72.2076 143.747 71.9718 143.732L69.4558 143.638C69.2353 143.623 69.0282 143.527 68.8735 143.368C68.7188 143.21 68.6273 143.001 68.6163 142.779L68.4471 114.629L81.491 112.995L82.4023 127.099L82.3986 127.114L79.2542 142.634C79.2063 142.832 79.0938 143.007 78.9347 143.132C78.7756 143.258 78.5791 143.326 78.3767 143.326Z" fill="#2F2E41"/>
<path d="M72.7478 83.926C75.2582 83.926 77.2933 81.8864 77.2933 79.3704C77.2933 76.8543 75.2582 74.8147 72.7478 74.8147C70.2374 74.8147 68.2023 76.8543 68.2023 79.3704C68.2023 81.8864 70.2374 83.926 72.7478 83.926Z" fill="#FFB8B8"/>
<path d="M77.0307 116.686C76.3198 116.691 75.6226 116.491 75.0214 116.11C72.8196 114.731 70.3187 115.279 69.0239 115.729C68.8954 115.774 68.7584 115.789 68.6232 115.774C68.4879 115.758 68.3579 115.713 68.2428 115.64C68.1291 115.568 68.033 115.472 67.9617 115.358C67.8904 115.243 67.8458 115.115 67.8312 114.981L65.4766 93.9052C65.082 90.374 67.2044 87.054 70.523 86.011C70.6477 85.9718 70.7745 85.9347 70.9034 85.8995C71.9361 85.6189 73.0177 85.5685 74.0719 85.7519C75.1262 85.9353 76.1275 86.348 77.0055 86.961C77.8998 87.5807 78.6477 88.3894 79.1966 89.33C79.7455 90.2707 80.0821 91.3205 80.1825 92.4055L82.1647 113.622C82.1782 113.76 82.1597 113.898 82.1107 114.027C82.0616 114.156 81.9834 114.272 81.8821 114.366C81.1873 115.01 79.1705 116.686 77.0307 116.686Z" fill="#6C63FF"/>
<path d="M69.8609 98.4247L64.5488 97.8393C64.3976 97.8227 64.2519 97.7736 64.1214 97.6954C63.9909 97.6171 63.8787 97.5117 63.7926 97.3861C63.7064 97.2605 63.6483 97.1178 63.6221 96.9677C63.5959 96.8176 63.6024 96.6635 63.6409 96.5161L64.9931 91.3511C65.0825 90.5765 65.4747 89.8691 66.0837 89.384C66.6928 88.8988 67.4689 88.6755 68.242 88.763C69.015 88.8505 69.7219 89.2416 70.2077 89.8507C70.6934 90.4597 70.9184 91.237 70.8332 92.012L71.0339 97.3308C71.0396 97.4831 71.0125 97.6348 70.9544 97.7757C70.8963 97.9165 70.8087 98.0431 70.6973 98.147C70.586 98.2508 70.4537 98.3293 70.3093 98.3773C70.165 98.4252 70.012 98.4414 69.8609 98.4247Z" fill="#6C63FF"/>
<path d="M82.1435 114.662C82.3617 114.47 82.5351 114.232 82.6515 113.965C82.768 113.698 82.8246 113.409 82.8175 113.117C82.8103 112.826 82.7395 112.54 82.6101 112.279C82.4807 112.018 82.2958 111.789 82.0684 111.608L80.7594 94.387L76.9121 95.255L79.1705 112.025C78.8916 112.428 78.77 112.92 78.8286 113.407C78.8872 113.894 79.1219 114.342 79.4884 114.667C79.8549 114.992 80.3275 115.171 80.8169 115.17C81.3062 115.169 81.7783 114.989 82.1435 114.662Z" fill="#FFB8B8"/>
<path d="M75.437 97.3421C75.3257 97.2383 75.238 97.1117 75.1799 96.9709C75.1218 96.83 75.0947 96.6783 75.1005 96.526L75.3012 91.2072C75.2161 90.4322 75.441 89.6549 75.9268 89.0459C76.4125 88.4368 77.1194 88.0457 77.8925 87.9582C78.6655 87.8707 79.4416 88.094 80.0507 88.5792C80.6597 89.0643 81.0519 89.7717 81.1413 90.5463L82.4935 95.7113C82.532 95.8587 82.5385 96.0127 82.5123 96.1629C82.4861 96.313 82.428 96.4557 82.3419 96.5813C82.2557 96.7068 82.1435 96.8123 82.0131 96.8905C81.8826 96.9688 81.7368 97.0179 81.5856 97.0345L76.2735 97.6199C76.1223 97.6367 75.9694 97.6205 75.825 97.5726C75.6806 97.5246 75.5483 97.446 75.437 97.3421Z" fill="#6C63FF"/>
<path d="M72.4774 84.0977C72.3966 84.0976 72.3161 84.0882 72.2374 84.0697L72.2143 84.064C68.2178 83.4513 67.3346 81.1313 67.1408 80.1624C66.9401 79.1592 67.1686 78.191 67.6849 77.8149C67.4034 76.9241 67.4486 76.1342 67.8195 75.4663C68.4664 74.3014 69.8703 73.9075 70.0585 73.8593C71.1797 73.0304 72.5212 73.5837 72.7652 73.696C74.934 72.8918 75.7629 73.5612 75.9128 73.7106C76.8823 73.8852 77.4732 74.2605 77.6693 74.8264C78.0378 75.8894 76.8725 77.2117 76.8228 77.2675L76.7969 77.2964L75.0609 77.3793C74.8962 77.3872 74.735 77.4296 74.5877 77.504C74.4404 77.5783 74.3104 77.6829 74.206 77.8109C74.1016 77.9388 74.0252 78.0874 73.9818 78.2468C73.9384 78.4063 73.9289 78.5731 73.954 78.7364C74.001 78.9472 74.0603 79.1551 74.1317 79.3588C74.4282 80.2874 74.6504 81.0807 74.3638 81.3823C74.2989 81.4407 74.2189 81.4795 74.133 81.4945C74.0471 81.5094 73.9587 81.4998 73.878 81.4667C73.6066 81.3941 73.4223 81.4093 73.3305 81.5121C73.1879 81.6715 73.2314 82.075 73.453 82.6483C73.5225 82.8295 73.5412 83.0264 73.5071 83.2176C73.473 83.4088 73.3874 83.5869 73.2594 83.7328C73.1631 83.8467 73.0433 83.9383 72.9083 84.0012C72.7733 84.0642 72.6263 84.0972 72.4774 84.0977Z" fill="#2F2E41"/>
<path d="M107.696 148H37.1851C37.136 148 37.0889 147.98 37.0542 147.946C37.0195 147.911 37 147.864 37 147.815C37 147.765 37.0195 147.718 37.0542 147.683C37.0889 147.649 37.136 147.629 37.1851 147.629H107.696C107.746 147.629 107.793 147.649 107.827 147.683C107.862 147.718 107.882 147.765 107.882 147.815C107.882 147.864 107.862 147.911 107.827 147.946C107.793 147.98 107.746 148 107.696 148Z" fill="#3F3D56"/>
<defs>
<linearGradient id="paint0_linear_422_252" x1="150.78" y1="-19.903" x2="8.5262" y2="177.987" gradientUnits="userSpaceOnUse">
<stop stop-color="#724498"/>
<stop offset="1" stop-color="#444CF7" stop-opacity="0"/>
</linearGradient>
<clipPath id="clip0_422_252">
<rect width="156" height="158" fill="white"/>
</clipPath>
</defs>
</svg>
