<svg width="24" height="24" viewBox="0 0 24 24" fill="none" xmlns="http://www.w3.org/2000/svg">
<path d="M22 24L18 20H3.5C3.1 20 2.75 19.85 2.45 19.55C2.15 19.25 2 18.9 2 18.5V5.5C2 5.1 2.15 4.75 2.45 4.45C2.75 4.15 3.1 4 3.5 4H20.5C20.9 4 21.25 4.15 21.55 4.45C21.85 4.75 22 5.1 22 5.5V24ZM18.65 18.5L20.5 20.5V5.5H3.5V18.5H18.65Z" fill="#0060A8"/>
<path d="M9 9.5C9 10.3284 8.32843 11 7.5 11C6.67157 11 6 10.3284 6 9.5C6 8.67157 6.67157 8 7.5 8C8.32843 8 9 8.67157 9 9.5ZM6.74971 9.5C6.74971 9.91437 7.08563 10.2503 7.5 10.2503C7.91437 10.2503 8.25029 9.91437 8.25029 9.5C8.25029 9.08563 7.91437 8.74971 7.5 8.74971C7.08563 8.74971 6.74971 9.08563 6.74971 9.5Z" fill="#0060A8"/>
<path d="M18 9.5C18 10.3284 17.3284 11 16.5 11C15.6716 11 15 10.3284 15 9.5C15 8.67157 15.6716 8 16.5 8C17.3284 8 18 8.67157 18 9.5ZM15.7497 9.5C15.7497 9.91437 16.0856 10.2503 16.5 10.2503C16.9144 10.2503 17.2503 9.91437 17.2503 9.5C17.2503 9.08563 16.9144 8.74971 16.5 8.74971C16.0856 8.74971 15.7497 9.08563 15.7497 9.5Z" fill="#0060A8"/>
<path d="M14.8 13.5C14.9105 13.5 15.001 13.5897 14.9904 13.6997C14.9654 13.9596 14.8918 14.2151 14.7716 14.4567C14.6209 14.76 14.3999 15.0356 14.1213 15.2678C13.8427 15.4999 13.512 15.6841 13.1481 15.8097C12.7841 15.9353 12.394 16 12 16C11.606 16 11.2159 15.9353 10.8519 15.8097C10.488 15.6841 10.1573 15.4999 9.87868 15.2678C9.6001 15.0356 9.37913 14.76 9.22836 14.4567C9.10825 14.2151 9.03458 13.9596 9.00959 13.6997C8.99901 13.5897 9.08954 13.5 9.2 13.5H14.8Z" fill="#0060A8"/>
<path d="M6 2.91465C5.84361 2.96992 5.67532 3 5.5 3C5.32468 3 5.15639 2.96992 5 2.91465V4H6V2.91465Z" fill="#0060A8"/>
<path d="M6.5 1.5C6.5 2.05228 6.05228 2.5 5.5 2.5C4.94772 2.5 4.5 2.05228 4.5 1.5C4.5 0.947715 4.94772 0.5 5.5 0.5C6.05228 0.5 6.5 0.947715 6.5 1.5Z" fill="#0060A8"/>
</svg>
